<svg width="18" height="18" viewBox="0 0 18 18" fill="none" xmlns="http://www.w3.org/2000/svg">
<path d="M14.1927 8.57915H12.1162C11.5219 8.57915 10.952 8.32996 10.5317 7.88636C10.1114 7.44277 9.87518 6.84108 9.87493 6.21362V1.64113C9.87147 1.21404 10.0271 0.802618 10.3084 0.495616C10.5896 0.188615 10.9738 0.0106304 11.3782 5.66412e-05C11.5781 -0.00172011 11.7763 0.03832 11.9614 0.117883C12.1465 0.197446 12.3149 0.314945 12.4568 0.463597C12.5987 0.612248 12.7113 0.789123 12.7881 0.983974C12.8648 1.17883 12.9043 1.38779 12.9042 1.59884V6.65176C12.901 6.94738 12.9575 7.24032 13.07 7.51105C13.1825 7.78177 13.3484 8.02407 13.5566 8.22173C13.7367 8.39567 13.9555 8.51863 14.1927 8.57915Z" fill="#A3DC2F"/>
<path d="M15.5785 8.45418C16.551 8.45418 17.3393 7.6218 17.3393 6.59501C17.3393 5.56822 16.551 4.73584 15.5785 4.73584C14.6061 4.73584 13.8177 5.56822 13.8177 6.59501C13.8177 7.6218 14.6061 8.45418 15.5785 8.45418Z" fill="#A3DC2F"/>
<path d="M9.87488 14.6773V12.4837C9.87512 11.8563 10.1114 11.2546 10.5316 10.811C10.9519 10.3674 11.5219 10.1182 12.1161 10.1182H16.4466C16.8511 10.1143 17.2407 10.2786 17.5314 10.5757C17.8221 10.8727 17.9904 11.2785 17.9999 11.7055C18.0016 11.9165 17.9637 12.1258 17.8883 12.3213C17.813 12.5168 17.7017 12.6946 17.5609 12.8444C17.4201 12.9942 17.2526 13.1131 17.0681 13.1941C16.8835 13.2752 16.6856 13.3169 16.4857 13.3168H11.7003C11.4203 13.3135 11.1429 13.3732 10.8865 13.492C10.6301 13.6108 10.4007 13.7859 10.2134 14.0057C10.049 14.1961 9.93264 14.427 9.87488 14.6773Z" fill="#A3DC2F"/>
<path d="M11.7539 18.0001C12.7264 18.0001 13.5147 17.1677 13.5147 16.1409C13.5147 15.1141 12.7264 14.2817 11.7539 14.2817C10.7815 14.2817 9.99316 15.1141 9.99316 16.1409C9.99316 17.1677 10.7815 18.0001 11.7539 18.0001Z" fill="#A3DC2F"/>
<path d="M3.80725 9.4209H5.88468C6.47894 9.42115 7.04877 9.67059 7.46888 10.1144C7.889 10.5581 8.125 11.1599 8.125 11.7874V16.3599C8.125 17.2448 7.46073 17.9933 6.62266 18C6.42271 18.0019 6.22439 17.9619 6.03915 17.8824C5.85391 17.8029 5.68544 17.6854 5.54346 17.5368C5.40148 17.3881 5.28881 17.2112 5.21197 17.0163C5.13512 16.8214 5.09562 16.6123 5.09574 16.4012V11.3483C5.09912 11.0528 5.04266 10.7599 4.93014 10.4893C4.81762 10.2187 4.65164 9.97664 4.44331 9.77928C4.26324 9.6052 4.04446 9.48193 3.80725 9.4209Z" fill="#A3DC2F"/>
<path d="M2.42141 13.2642C3.39386 13.2642 4.18218 12.4319 4.18218 11.4051C4.18218 10.3783 3.39386 9.5459 2.42141 9.5459C1.44897 9.5459 0.660645 10.3783 0.660645 11.4051C0.660645 12.4319 1.44897 13.2642 2.42141 13.2642Z" fill="#A3DC2F"/>
<path d="M8.12417 3.32373V5.51629C8.12417 6.14375 7.88816 6.74554 7.46805 7.18931C7.04793 7.63308 6.4781 7.88253 5.88385 7.88278H1.55427C1.14978 7.88644 0.760137 7.72206 0.469384 7.42513C0.178632 7.12819 0.0100677 6.72249 5.36285e-05 6.29552C-0.00162908 6.08448 0.0363029 5.87517 0.111655 5.67969C0.187006 5.48422 0.298287 5.30643 0.439071 5.15662C0.579855 5.0068 0.747357 4.88793 0.931895 4.80684C1.11643 4.72576 1.31435 4.6841 1.51423 4.68423H6.30425C6.58423 4.68762 6.86167 4.62792 7.11807 4.50912C7.37447 4.39033 7.60391 4.21518 7.79112 3.99534C7.95388 3.80462 8.06843 3.57362 8.12417 3.32373Z" fill="#A3DC2F"/>
<path d="M6.246 3.71834C7.21845 3.71834 8.00677 2.88596 8.00677 1.85917C8.00677 0.832379 7.21845 0 6.246 0C5.27355 0 4.48523 0.832379 4.48523 1.85917C4.48523 2.88596 5.27355 3.71834 6.246 3.71834Z" fill="#A3DC2F"/>
</svg>
