<svg width="12" height="12" viewBox="0 0 12 12" fill="none" xmlns="http://www.w3.org/2000/svg">
<path d="M9.77295 5.64787C9.72069 5.70031 9.65859 5.74191 9.59022 5.7703C9.52185 5.7987 9.44854 5.81331 9.37451 5.81331C9.30048 5.81331 9.22717 5.7987 9.1588 5.7703C9.09043 5.74191 9.02833 5.70031 8.97607 5.64787L6.56248 3.23427V10.1249C6.56248 10.2741 6.50322 10.4172 6.39773 10.5226C6.29224 10.6281 6.14916 10.6874 5.99998 10.6874C5.8508 10.6874 5.70772 10.6281 5.60223 10.5226C5.49674 10.4172 5.43748 10.2741 5.43748 10.1249V3.23427L3.02295 5.64787C2.91728 5.75354 2.77395 5.8129 2.62451 5.8129C2.47507 5.8129 2.33175 5.75354 2.22607 5.64787C2.1204 5.54219 2.06104 5.39887 2.06104 5.24943C2.06104 5.09999 2.1204 4.95666 2.22607 4.85099L5.60107 1.47599C5.65333 1.42355 5.71543 1.38194 5.7838 1.35355C5.85217 1.32516 5.92548 1.31055 5.99951 1.31055C6.07354 1.31055 6.14685 1.32516 6.21522 1.35355C6.28359 1.38194 6.34569 1.42355 6.39795 1.47599L9.77295 4.85099C9.82539 4.90325 9.867 4.96535 9.89539 5.03372C9.92378 5.10209 9.93839 5.1754 9.93839 5.24943C9.93839 5.32346 9.92378 5.39677 9.89539 5.46514C9.867 5.53351 9.82539 5.59561 9.77295 5.64787Z" fill="#33C6AB"/>
</svg>
