<svg width="21" height="21" viewBox="0 0 21 21" fill="none" xmlns="http://www.w3.org/2000/svg">
<path d="M7.33838 7.31348L11.5315 7.32923M7.31475 13.6031L10.4596 13.6149M7.32657 10.4583L13.6162 10.4819" stroke="black" stroke-width="1.4" stroke-linecap="round"/>
<path d="M1.41728 7.23908C2.11117 4.33014 4.39303 2.06535 7.30711 1.39334C9.41161 0.908024 11.5999 0.916245 13.7007 1.41736C16.6096 2.11124 18.8744 4.39311 19.5464 7.30718C20.0317 9.41169 20.0235 11.6 19.5224 13.7008C18.8285 16.6097 16.5467 18.8745 13.6326 19.5465C11.5281 20.0318 9.33981 20.0236 7.23901 19.5225C4.33007 18.8286 2.06528 16.5467 1.39327 13.6327C0.907948 11.5282 0.916168 9.33989 1.41728 7.23908Z" stroke="black" stroke-width="1.4"/>
</svg>
