<svg width="16" height="18" viewBox="0 0 16 18" fill="none" xmlns="http://www.w3.org/2000/svg">
<g clip-path="url(#clip0_22_561)">
<path d="M14.4253 7.75488L10.5703 6.26538L9.16841 2.16945C9.08097 1.91383 8.9216 1.693 8.71195 1.53694C8.50229 1.38089 8.25251 1.29718 7.99653 1.29718C7.74055 1.29718 7.49077 1.38089 7.28112 1.53694C7.07147 1.693 6.9121 1.91383 6.82466 2.16945L5.42278 6.26538L1.56778 7.75488C1.3272 7.84778 1.11936 8.01711 0.972485 8.23987C0.825612 8.46262 0.746826 8.72801 0.746826 8.99999C0.746826 9.27197 0.825612 9.53736 0.972485 9.76012C1.11936 9.98288 1.3272 10.1522 1.56778 10.2451L5.42278 11.7346L6.82466 15.8305C6.9121 16.0862 7.07147 16.307 7.28112 16.463C7.49077 16.6191 7.74055 16.7028 7.99653 16.7028C8.25251 16.7028 8.50229 16.6191 8.71195 16.463C8.9216 16.307 9.08097 16.0862 9.16841 15.8305L10.5703 11.7346L14.4253 10.2451C14.6659 10.1522 14.8737 9.98288 15.0206 9.76012C15.1675 9.53736 15.2462 9.27197 15.2462 8.99999C15.2462 8.72801 15.1675 8.46262 15.0206 8.23987C14.8737 8.01711 14.6659 7.84778 14.4253 7.75488ZM9.94716 10.2783C9.77571 10.3443 9.62 10.4496 9.49105 10.5866C9.3621 10.7236 9.26305 10.889 9.20091 11.0712L7.99653 14.5907L6.79216 11.0712C6.73002 10.889 6.63097 10.7236 6.50202 10.5866C6.37306 10.4496 6.21736 10.3443 6.04591 10.2783L2.73341 8.99999L6.04591 7.72035C6.21736 7.65432 6.37306 7.54908 6.50202 7.41207C6.63097 7.27506 6.73002 7.10962 6.79216 6.92745L7.99653 3.40792L9.20091 6.92745C9.26305 7.10962 9.3621 7.27506 9.49105 7.41207C9.62 7.54908 9.77571 7.65432 9.94716 7.72035L13.2597 8.99999L9.94716 10.2783Z" fill="#33C6AB"/>
</g>
<defs>
<clipPath id="clip0_22_561">
<rect width="16" height="17" fill="white" transform="translate(-0.00341797 0.5)"/>
</clipPath>
</defs>
</svg>
