<svg width="17" height="16" viewBox="0 0 17 16" fill="none" xmlns="http://www.w3.org/2000/svg">
<path d="M15.0306 5.03063L7.0306 13.0306C6.96092 13.1005 6.87813 13.156 6.78696 13.1939C6.6958 13.2317 6.59806 13.2512 6.49935 13.2512C6.40064 13.2512 6.3029 13.2317 6.21173 13.1939C6.12057 13.156 6.03778 13.1005 5.9681 13.0306L2.4681 9.53063C2.39833 9.46087 2.34299 9.37804 2.30524 9.28689C2.26748 9.19574 2.24805 9.09804 2.24805 8.99938C2.24805 8.90072 2.26748 8.80302 2.30524 8.71187C2.34299 8.62072 2.39833 8.53789 2.4681 8.46813C2.53786 8.39837 2.62069 8.34302 2.71184 8.30527C2.80299 8.26751 2.90069 8.24808 2.99935 8.24808C3.09801 8.24808 3.19571 8.26751 3.28686 8.30527C3.37801 8.34302 3.46083 8.39837 3.5306 8.46813L6.49997 11.4375L13.9693 3.96938C14.1102 3.82848 14.3013 3.74933 14.5006 3.74933C14.6999 3.74933 14.891 3.82848 15.0318 3.96938C15.1727 4.11028 15.2519 4.30137 15.2519 4.50063C15.2519 4.69989 15.1727 4.89098 15.0318 5.03188L15.0306 5.03063Z" fill="#1D1C20"/>
</svg>
