<svg width="181" height="36" viewBox="0 0 181 36" fill="none" xmlns="http://www.w3.org/2000/svg">
<circle cx="18.5" cy="18" r="18" fill="#F2F2F2"/>
<path d="M26.4817 14.1281C25.943 14.3675 25.3743 14.5172 24.7757 14.607C25.3743 14.2478 25.8532 13.6792 26.0627 12.9908C25.494 13.32 24.8655 13.5594 24.1771 13.7091C23.6383 13.1404 22.8602 12.7812 22.0221 12.7812C20.4059 12.7812 19.089 14.0982 19.089 15.7144C19.089 15.9538 19.1189 16.1634 19.1788 16.3729C16.7544 16.2531 14.5695 15.0859 13.1029 13.2901C12.8635 13.739 12.7138 14.2179 12.7138 14.7566C12.7138 15.7743 13.2227 16.6722 14.0308 17.2109C13.5519 17.181 13.1029 17.0613 12.6839 16.8518V16.8817C12.6839 18.3183 13.7015 19.5155 15.0484 19.7849C14.8089 19.8448 14.5396 19.8747 14.2702 19.8747C14.0906 19.8747 13.8811 19.8448 13.7015 19.8148C14.0906 20.9821 15.1681 21.8501 16.4551 21.8501C15.4375 22.6283 14.1804 23.1072 12.8036 23.1072C12.5642 23.1072 12.3247 23.1072 12.1152 23.0772C13.4322 23.9153 14.9586 24.3942 16.6347 24.3942C22.052 24.3942 25.0151 19.9046 25.0151 16.0137C25.0151 15.894 25.0151 15.7443 25.0151 15.6246C25.5838 15.2355 26.0926 14.7267 26.4817 14.1281Z" fill="#1D1C20"/>
<circle cx="66.5" cy="18" r="18" fill="#2B59FF"/>
<path d="M64.8399 26.1105V18.9702H62.437V16.1875H64.8399V14.1353C64.8399 11.7538 66.2944 10.457 68.4189 10.457C69.4365 10.457 70.3112 10.5328 70.566 10.5667V13.0555L69.0926 13.0562C67.9372 13.0562 67.7135 13.6052 67.7135 14.4109V16.1875H70.469L70.1102 18.9702H67.7135V26.1105H64.8399Z" fill="white"/>
<circle cx="114.5" cy="18" r="18" fill="#F2F2F2"/>
<path d="M114.501 10.8604C116.827 10.8604 117.102 10.8691 118.021 10.911C118.573 10.9178 119.12 11.0192 119.638 11.2109C120.014 11.3558 120.355 11.5777 120.64 11.8624C120.925 12.1472 121.147 12.4884 121.291 12.8641C121.483 13.3821 121.585 13.9292 121.591 14.4816C121.633 15.4002 121.642 15.6756 121.642 18.0011C121.642 20.3266 121.633 20.602 121.591 21.5206C121.585 22.073 121.483 22.6201 121.291 23.1382C121.147 23.5139 120.925 23.855 120.64 24.1398C120.355 24.4245 120.014 24.6464 119.638 24.7913C119.12 24.983 118.573 25.0844 118.021 25.0912C117.102 25.1327 116.827 25.1418 114.501 25.1418C112.175 25.1418 111.9 25.1331 110.982 25.0912C110.429 25.0844 109.882 24.983 109.364 24.7913C108.988 24.6464 108.647 24.4245 108.363 24.1398C108.078 23.855 107.856 23.5139 107.711 23.1382C107.519 22.6201 107.418 22.073 107.411 21.5206C107.37 20.602 107.36 20.3266 107.36 18.0011C107.36 15.6756 107.369 15.4002 107.411 14.4816C107.418 13.9292 107.519 13.3821 107.711 12.8641C107.856 12.4884 108.078 12.1472 108.363 11.8624C108.647 11.5777 108.988 11.3558 109.364 11.2109C109.882 11.0192 110.429 10.9178 110.982 10.911C111.9 10.8695 112.176 10.8604 114.501 10.8604ZM114.501 9.29102C112.137 9.29102 111.839 9.30097 110.91 9.34327C110.187 9.35765 109.472 9.49452 108.795 9.74807C108.214 9.96691 107.688 10.3099 107.253 10.753C106.81 11.1878 106.467 11.7142 106.248 12.2954C105.994 12.9726 105.857 13.6878 105.843 14.4106C105.801 15.3388 105.792 15.6366 105.792 18.0007C105.792 20.3647 105.801 20.6625 105.844 21.5916C105.858 22.3145 105.995 23.0297 106.249 23.7068C106.467 24.2879 106.81 24.8143 107.253 25.2492C107.688 25.6924 108.215 26.0354 108.796 26.2541C109.473 26.5077 110.188 26.6446 110.911 26.6589C111.84 26.7004 112.137 26.7112 114.502 26.7112C116.867 26.7112 117.164 26.7012 118.093 26.6589C118.816 26.6446 119.531 26.5077 120.208 26.2541C120.786 26.0299 121.312 25.6875 121.75 25.2487C122.189 24.8099 122.531 24.2845 122.755 23.7059C123.008 23.0288 123.145 22.3136 123.159 21.5907C123.201 20.6625 123.211 20.3647 123.211 18.0007C123.211 15.6366 123.201 15.3388 123.159 14.4098C123.144 13.6869 123.007 12.9717 122.754 12.2946C122.535 11.7135 122.192 11.1871 121.749 10.7522C121.314 10.3089 120.788 9.96598 120.206 9.74724C119.529 9.49369 118.814 9.35682 118.091 9.34244C117.163 9.30097 116.865 9.29102 114.501 9.29102Z" fill="#1D1C20"/>
<path d="M114.501 13.5312C113.617 13.5312 112.752 13.7936 112.017 14.285C111.281 14.7765 110.708 15.475 110.369 16.2923C110.031 17.1095 109.942 18.0088 110.115 18.8764C110.287 19.744 110.713 20.541 111.339 21.1665C111.964 21.792 112.761 22.218 113.629 22.3906C114.496 22.5631 115.396 22.4746 116.213 22.136C117.03 21.7975 117.729 21.2243 118.22 20.4887C118.712 19.7532 118.974 18.8885 118.974 18.0039C118.974 16.8177 118.503 15.68 117.664 14.8413C116.825 14.0025 115.688 13.5312 114.501 13.5312ZM114.501 20.9071C113.927 20.9071 113.366 20.7368 112.888 20.4178C112.411 20.0988 112.039 19.6454 111.819 19.1149C111.599 18.5844 111.542 18.0007 111.654 17.4375C111.766 16.8743 112.043 16.357 112.449 15.951C112.855 15.545 113.372 15.2685 113.935 15.1564C114.498 15.0444 115.082 15.1019 115.612 15.3216C116.143 15.5414 116.596 15.9135 116.915 16.3909C117.234 16.8684 117.405 17.4297 117.405 18.0039C117.405 18.7739 117.099 19.5123 116.554 20.0568C116.01 20.6012 115.271 20.9071 114.501 20.9071Z" fill="#1D1C20"/>
<path d="M119.151 14.395C119.728 14.395 120.196 13.9271 120.196 13.3498C120.196 12.7726 119.728 12.3047 119.151 12.3047C118.573 12.3047 118.105 12.7726 118.105 13.3498C118.105 13.9271 118.573 14.395 119.151 14.395Z" fill="#1D1C20"/>
<circle cx="162.5" cy="18" r="18" fill="#F2F2F2"/>
<path fill-rule="evenodd" clip-rule="evenodd" d="M163.28 9.29102C158.663 9.29102 154.949 13.0054 154.949 17.6223C154.949 21.302 157.344 24.4262 160.642 25.537C161.058 25.6065 161.197 25.3635 161.197 25.1205C161.197 24.9122 161.197 24.3915 161.197 23.6972C158.871 24.2179 158.385 22.5864 158.385 22.5864C158.004 21.6144 157.448 21.3714 157.448 21.3714C156.684 20.8507 157.518 20.8507 157.518 20.8507C158.351 20.9201 158.802 21.7185 158.802 21.7185C159.531 23.0029 160.746 22.6211 161.232 22.4128C161.301 21.8574 161.51 21.5103 161.753 21.302C159.913 21.0937 157.969 20.3647 157.969 17.171C157.969 16.2685 158.281 15.5048 158.837 14.9494C158.767 14.7411 158.455 13.9079 158.906 12.7277C158.906 12.7277 159.6 12.5194 161.197 13.5955C161.857 13.4219 162.586 13.3178 163.28 13.3178C163.974 13.3178 164.703 13.4219 165.363 13.5955C166.96 12.5194 167.654 12.7277 167.654 12.7277C168.105 13.8732 167.828 14.7064 167.723 14.9494C168.244 15.5395 168.591 16.2685 168.591 17.171C168.591 20.3647 166.647 21.059 164.773 21.2673C165.085 21.5103 165.328 22.031 165.328 22.7947C165.328 23.9055 165.328 24.8081 165.328 25.0858C165.328 25.294 165.467 25.5718 165.918 25.5023C169.216 24.4262 171.611 21.302 171.611 17.6223C171.611 13.0054 167.897 9.29102 163.28 9.29102Z" fill="#1D1C20"/>
</svg>
