<svg width="17" height="17" viewBox="0 0 17 17" fill="none" xmlns="http://www.w3.org/2000/svg">
<path d="M14 3.25H3.00001C2.66849 3.25 2.35055 3.3817 2.11613 3.61612C1.88171 3.85054 1.75001 4.16848 1.75001 4.5V14.5C1.74901 14.738 1.81663 14.9713 1.94476 15.172C2.07289 15.3726 2.25612 15.532 2.47251 15.6313C2.63862 15.709 2.81972 15.7495 3.00314 15.75C3.29665 15.7492 3.58045 15.6448 3.80439 15.455L3.81626 15.445L5.75001 13.75H14C14.3315 13.75 14.6495 13.6183 14.8839 13.3839C15.1183 13.1495 15.25 12.8315 15.25 12.5V4.5C15.25 4.16848 15.1183 3.85054 14.8839 3.61612C14.6495 3.3817 14.3315 3.25 14 3.25ZM13.75 12.25H5.65626C5.36199 12.25 5.07715 12.3538 4.85189 12.5431L4.84001 12.5531L3.25001 13.9462V4.75H13.75V12.25Z" fill="#1D1C20"/>
</svg>
