<svg width="16" height="17" viewBox="0 0 16 17" fill="none" xmlns="http://www.w3.org/2000/svg">
<path d="M14.0406 9.03074L9.54064 13.5307C9.39974 13.6716 9.20864 13.7508 9.00939 13.7508C8.81013 13.7508 8.61903 13.6716 8.47814 13.5307C8.33724 13.3898 8.25808 13.1987 8.25808 12.9995C8.25808 12.8002 8.33724 12.6091 8.47814 12.4682L11.6975 9.25011H2.51001C2.3111 9.25011 2.12033 9.17109 1.97968 9.03044C1.83903 8.88979 1.76001 8.69902 1.76001 8.50011C1.76001 8.3012 1.83903 8.11043 1.97968 7.96978C2.12033 7.82913 2.3111 7.75011 2.51001 7.75011H11.6975L8.47938 4.53011C8.33849 4.38921 8.25933 4.19812 8.25933 3.99886C8.25933 3.7996 8.33849 3.60851 8.47938 3.46761C8.62028 3.32671 8.81138 3.24756 9.01063 3.24756C9.20989 3.24756 9.40099 3.32671 9.54188 3.46761L14.0419 7.96761C14.1118 8.03738 14.1673 8.12028 14.2051 8.21155C14.2429 8.30281 14.2623 8.40065 14.2622 8.49943C14.262 8.59822 14.2424 8.69601 14.2044 8.78718C14.1664 8.87836 14.1107 8.96113 14.0406 9.03074Z" fill="#A3DC2F"/>
</svg>
