<svg width="3" height="13" viewBox="0 0 3 13" fill="none" xmlns="http://www.w3.org/2000/svg">
<path d="M3 1.39771C3 0.62897 2.37103 -2.74931e-08 1.60229 -6.10959e-08C0.833549 -9.46986e-08 0.204579 0.62897 0.204579 1.39771C0.204579 2.16645 0.833548 2.79542 1.60229 2.79542C2.37103 2.79542 3 2.16645 3 1.39771Z" fill="#A4A4A4"/>
<path d="M3 11.1817C3 10.4129 2.37103 9.78397 1.60229 9.78397C0.833548 9.78397 0.204578 10.4129 0.204578 11.1817C0.204578 11.9504 0.833548 12.5794 1.60229 12.5794C2.37103 12.5794 3 11.9504 3 11.1817Z" fill="#A4A4A4"/>
<path d="M3 6.2897C3 5.52096 2.37103 4.89199 1.60229 4.89199C0.833548 4.89199 0.204579 5.52096 0.204579 6.2897C0.204579 7.05844 0.833548 7.68741 1.60229 7.68741C2.37103 7.68741 3 7.05844 3 6.2897Z" fill="#A4A4A4"/>
</svg>
